<?xml version="1.0" encoding="utf-8"?>
<!-- Generator: Adobe Illustrator 26.0.0, SVG Export Plug-In . SVG Version: 6.00 Build 0)  -->
<svg version="1.2" baseProfile="tiny" xmlns="http://www.w3.org/2000/svg" xmlns:xlink="http://www.w3.org/1999/xlink" x="0px"
	 y="0px" viewBox="0 0 32 32" overflow="visible" xml:space="preserve">
<g id="Layer_1">
	<g>
		<path fill="#6A6A6A" d="M20.277,1.545c-0.119,0-0.238,0.03-0.345,0.089L0.371,15.372C0.142,15.498,0,15.739,0,16
			s0.142,0.502,0.371,0.628l19.56,13.738c0.222,0.122,0.491,0.118,0.71-0.011c0.218-0.129,0.352-0.363,0.352-0.617V2.262
			c0-0.253-0.134-0.488-0.352-0.617C20.529,1.579,20.403,1.545,20.277,1.545z"/>
		<path fill="#6A6A6A" d="M31.322,1.545h-4.818c-0.374,0-0.678,0.29-0.678,0.647v27.615c0,0.357,0.303,0.647,0.678,0.647h4.818
			c0.374,0,0.678-0.29,0.678-0.647V2.193C32,1.835,31.697,1.545,31.322,1.545z"/>
	</g>
</g>
<g id="METRICS_AND_KEYLINES">
</g>
<g id="Isolation_Mode">
</g>
<g id="filled">
</g>
</svg>
