<?xml version="1.0" encoding="UTF-8"?>
<svg id="icons" xmlns="http://www.w3.org/2000/svg" viewBox="0 0 16 16">
  <defs>
    <style>
      .cls-1 {
        fill: #fff;
      }
    </style>
  </defs>
  <g id="Layer_1" data-name="Layer 1">
    <g>
      <rect class="cls-1" x="0" width="16" height="16"/>
      <rect x="1" y="1" width="14" height="14"/>
      <path class="cls-1" d="m11.21,4.77c-.15-.15-.4-.15-.56,0l-2.66,2.66-2.66-2.66c-.15-.15-.4-.15-.56,0-.15.15-.15.4,0,.56l2.66,2.66-2.66,2.66c-.15.15-.15.4,0,.56.08.08.18.11.28.11s.2-.04.28-.11l2.66-2.66,2.66,2.66c.08.08.18.11.28.11s.2-.04.28-.11c.15-.15.15-.4,0-.56l-2.66-2.66,2.66-2.66c.15-.15.15-.4,0-.56Z"/>
    </g>
  </g>
</svg>