<?xml version="1.0" encoding="utf-8"?>
<!-- Generator: Adobe Illustrator 26.0.2, SVG Export Plug-In . SVG Version: 6.00 Build 0)  -->
<svg version="1.2" baseProfile="tiny" xmlns="http://www.w3.org/2000/svg" xmlns:xlink="http://www.w3.org/1999/xlink" x="0px"
	 y="0px" viewBox="0 0 32 32" overflow="visible" xml:space="preserve">
<g id="Layer_1">
	<path fill="#6A6A6A" d="M29.865,14.236c-1.013,0-1.857,0.708-2.076,1.654H16.843c-0.327,0-0.609,0.229-0.677,0.549l-1.3,6.143
		L11.46,5.879c-0.066-0.325-0.36-0.564-0.683-0.555c-0.33,0.002-0.614,0.238-0.675,0.563L7.806,18.028l-1.169-2.359
		c-0.117-0.235-0.357-0.385-0.62-0.385H0.692C0.311,15.284,0,15.593,0,15.976c0,0.382,0.311,0.692,0.692,0.692h4.894l1.895,3.825
		c0.132,0.267,0.42,0.419,0.714,0.378c0.294-0.04,0.531-0.265,0.586-0.557l2.027-10.71l3.368,16.517
		c0.066,0.322,0.348,0.552,0.676,0.553c0.001,0,0.001,0,0.002,0c0.327,0,0.609-0.229,0.677-0.549l1.873-8.854h10.532
		c0.341,0.726,1.073,1.233,1.928,1.233c1.179,0,2.135-0.956,2.135-2.135C32,15.192,31.044,14.236,29.865,14.236z"/>
</g>
<g id="METRICS_AND_KEYLINES">
</g>
<g id="Isolation_Mode">
</g>
<g id="filled">
</g>
</svg>
