<?xml version="1.0" encoding="utf-8"?>
<!-- Generator: Adobe Illustrator 22.1.0, SVG Export Plug-In . SVG Version: 6.00 Build 0)  -->
<svg version="1.2" baseProfile="tiny" id="Layer_1" xmlns="http://www.w3.org/2000/svg" xmlns:xlink="http://www.w3.org/1999/xlink"
	 x="0px" y="0px" viewBox="0 0 32 32" xml:space="preserve">
<g>
	<path fill="#6A6A6A" d="M19.973,11.801c0.092-0.002,0.176,0.034,0.236,0.094c0.056,0.056,0.091,0.131,0.094,0.217l0.38,7.412
		c0.003,0.09-0.032,0.176-0.096,0.24l-1.217,1.198c-0.091,0.089-0.226,0.116-0.345,0.069c-0.118-0.049-0.198-0.161-0.203-0.29
		l-0.335-5.601l-8.732,8.732c-0.125,0.125-0.33,0.125-0.455,0l-0.968-0.968c-0.125-0.125-0.125-0.33,0-0.455l8.825-8.825
		l-5.693-0.074c-0.128-0.004-0.239-0.083-0.289-0.2c-0.048-0.117-0.023-0.252,0.066-0.345l1.243-1.311
		c0.064-0.066,0.152-0.102,0.242-0.099L19.973,11.801z"/>
	<g>
		<path fill="#6A6A6A" d="M13.161,23.912v4.566c0,0.373-0.303,0.676-0.676,0.676H3.462c-0.373,0-0.676-0.303-0.676-0.676v-9.023
			c0-0.373,0.303-0.676,0.676-0.676h5.281l1.373-1.3H3.462c-1.09,0-1.976,0.886-1.976,1.976v9.023c0,1.09,0.886,1.976,1.976,1.976
			h9.023c1.089,0,1.976-0.886,1.976-1.976V22.69l-1.221,1.155C13.214,23.868,13.188,23.89,13.161,23.912z"/>
		<path fill="#6A6A6A" d="M28.538,1.546h-9.023c-1.09,0-1.976,0.886-1.976,1.976v6.033l1.3-0.18V3.522
			c0-0.373,0.303-0.676,0.676-0.676h9.023c0.373,0,0.676,0.303,0.676,0.676v9.023c0,0.373-0.303,0.676-0.676,0.676h-5.081
			l-0.257,1.3h5.337c1.089,0,1.976-0.886,1.976-1.976V3.522C30.514,2.433,29.627,1.546,28.538,1.546z"/>
	</g>
</g>
</svg>
