<?xml version="1.0" encoding="utf-8"?>
<!-- Generator: Adobe Illustrator 22.1.0, SVG Export Plug-In . SVG Version: 6.00 Build 0)  -->
<svg version="1.2" baseProfile="tiny" id="Layer_1" xmlns="http://www.w3.org/2000/svg" xmlns:xlink="http://www.w3.org/1999/xlink"
	 x="0px" y="0px" viewBox="0 0 16 16" xml:space="preserve">
<g>
	<path fill="#6A6A6A" d="M10.292,11.633l-0.098,0.012l-0.02,0.096c-0.44,2.118-1.287,3.267-2.109,3.269
		c-0.824,0.002-1.679-1.423-2.129-3.546c-0.026-0.124-0.053-0.262-0.082-0.422c-0.037-0.208-0.071-0.42-0.099-0.628
		c-0.019-0.139-0.037-0.28-0.052-0.423c-0.07-0.64-0.107-1.308-0.108-1.984s0.032-1.344,0.099-1.984
		c0.015-0.144,0.032-0.285,0.05-0.424C5.772,5.39,5.804,5.179,5.841,4.97c0.028-0.161,0.054-0.3,0.08-0.423
		C6.359,2.421,7.208,0.992,8.032,0.99c0.822-0.002,1.676,1.418,2.126,3.534c0.026,0.122,0.053,0.26,0.082,0.421
		c0.038,0.209,0.071,0.42,0.099,0.628L10.35,5.65c0.031,0.214,0.107,0.745,0.133,1.162L9.059,6.815l1.894,3.262l1.878-3.271
		l-1.455,0.004c-0.009-0.194-0.023-0.286-0.04-0.406c-0.012-0.084-0.026-0.18-0.042-0.337c-0.015-0.147-0.032-0.291-0.051-0.435
		c-0.028-0.215-0.06-0.432-0.096-0.644c-0.027-0.162-0.053-0.304-0.079-0.433c-0.146-0.737-0.337-1.408-0.567-1.994
		c-0.623-1.59-1.5-2.465-2.472-2.462C7.058,0.1,6.185,0.979,5.57,2.572C5.341,3.164,5.153,3.841,5.01,4.585
		c-0.025,0.13-0.05,0.273-0.077,0.436c-0.035,0.213-0.066,0.43-0.092,0.645C4.823,5.81,4.806,5.955,4.792,6.102
		c-0.06,0.62-0.09,1.262-0.089,1.906c0.002,0.644,0.034,1.285,0.098,1.906c0.015,0.147,0.032,0.292,0.05,0.436
		c0.027,0.212,0.059,0.429,0.095,0.645C4.975,11.157,5,11.299,5.026,11.43c0.147,0.743,0.339,1.42,0.57,2.01
		c0.623,1.59,1.5,2.465,2.472,2.462c0.971-0.002,1.845-0.881,2.46-2.474c0.227-0.588,0.414-0.984,0.557-1.722l0.037-0.19
		l-0.192,0.03C10.717,11.579,10.502,11.608,10.292,11.633z"/>
	<path fill="#6A6A6A" d="M13.531,5.5c-0.605-0.235-0.815-0.375-1.576-0.521l-0.19-0.036l0.03,0.192
		c0.034,0.215,0.064,0.429,0.088,0.638l0.012,0.098l0.096,0.02c2.152,0.441,3.116,1.244,3.116,2.076
		c0,0.562-0.704,1.174-1.883,1.637c-1.342,0.527-3.163,0.817-5.126,0.818c-0.698,0-1.793-0.098-1.793-0.098l0.146,0.911
		c0,0,0.982,0.08,1.647,0.08c0.716,0,1.428-0.039,2.118-0.117l0.05-0.006c0.208-0.024,0.421-0.053,0.632-0.085l0.168-0.026
		c0.919-0.151,1.749-0.369,2.465-0.648C15.124,9.812,16,8.936,16,7.965C16,6.994,15.123,6.119,13.531,5.5z"/>
	<path fill="#6A6A6A" d="M4.493,10.194l-0.011-0.097l-0.095-0.02c-2.09-0.446-3.494-1.293-3.494-2.108
		c0-0.45,0.299-0.874,0.867-1.235l0.506,1.363l2.407-2.905L0.953,4.561l0.525,1.414C0.51,6.538,0,7.226,0,7.969
		c0,0.971,0.877,1.847,2.469,2.465c0.575,0.223,1.232,0.409,1.951,0.553l0.191,0.038l-0.03-0.193
		C4.548,10.619,4.518,10.404,4.493,10.194z"/>
</g>
</svg>
