<?xml version="1.0" encoding="utf-8"?>
<!-- Generator: Adobe Illustrator 26.5.0, SVG Export Plug-In . SVG Version: 6.00 Build 0)  -->
<svg version="1.2" baseProfile="tiny" xmlns="http://www.w3.org/2000/svg" xmlns:xlink="http://www.w3.org/1999/xlink" x="0px"
	 y="0px" viewBox="0 0 23.272 55.735" overflow="visible" xml:space="preserve">
<g id="grid" display="none">
</g>
<g id="stk">
	<rect x="0.99" y="1" fill="none" stroke="#9C9B9B" stroke-width="2" stroke-miterlimit="10" width="21.297" height="53.735"/>
	<polyline fill="none" stroke="#9C9B9B" stroke-width="2" stroke-miterlimit="10" points="22.272,19.407 22.272,54.537 
		1.145,54.537 1.145,19.407 	"/>
	<path fill="none" stroke="#9C9B9B" stroke-width="2" stroke-miterlimit="10" d="M22.219,19.404c-7.426,5.217-14.441,4.85-21.127,0
		l0-18.018h21.127L22.219,19.404z"/>
	<g>
		
			<rect x="7.827" y="7.428" transform="matrix(-1 -1.224647e-16 1.224647e-16 -1 23.5325 23.286)" fill="none" stroke="#9C9B9B" stroke-width="2" stroke-miterlimit="10" width="7.878" height="8.43"/>
	</g>
	<g>
		<polygon fill="#9C9B9B" stroke="#9C9B9B" stroke-width="2" stroke-miterlimit="10" points="1.745,35.63 4.49,38.98 4.49,44.612 
			1.674,47.678 1.149,47.678 1.149,35.63 		"/>
	</g>
	<g>
		<polygon fill="#9C9B9B" stroke="#9C9B9B" stroke-width="2" stroke-miterlimit="10" points="21.853,47.678 18.981,44.327 
			18.981,38.696 21.924,35.63 22.322,35.63 22.322,47.678 		"/>
	</g>
	
		<rect x="-113.68" y="-7.092" fill="none" stroke="#FFFFFF" stroke-width="0.5" stroke-miterlimit="10" width="530.325" height="69.711"/>
	<g>
		
			<rect x="13.547" y="30.313" fill="#9C9B9B" stroke="#9C9B9B" stroke-width="0" stroke-miterlimit="10" width="5.464" height="2.345"/>
	</g>
	<g>
		
			<rect x="13.547" y="26.041" fill="#9C9B9B" stroke="#9C9B9B" stroke-width="0" stroke-miterlimit="10" width="5.464" height="2.345"/>
	</g>
</g>
</svg>
