<?xml version="1.0" encoding="UTF-8"?>
<svg id="Layer_1" data-name="Layer 1" xmlns="http://www.w3.org/2000/svg" viewBox="0 0 16 16">
  <defs>
    <style>
      .cls-1 {
        fill: #fff;
      }
    </style>
  </defs>
  <g id="Layer_1-2" data-name="Layer 1">
    <circle class="cls-1" cx="8" cy="8" r="8"/>
    <g>
      <circle cx="8" cy="8" r="7"/>
      <path class="cls-1" d="m11.21,4.79c-.15-.15-.4-.15-.56,0l-2.66,2.66-2.66-2.66c-.15-.15-.4-.15-.56,0-.15.15-.15.4,0,.56l2.66,2.65-2.66,2.66c-.15.15-.15.4,0,.56.08.08.18.11.28.11s.2-.04.28-.11l2.66-2.66,2.66,2.66c.08.08.18.11.28.11s.2-.04.28-.11c.15-.15.15-.4,0-.56l-2.65-2.66,2.66-2.66c.15-.15.15-.4,0-.56Z"/>
    </g>
  </g>
</svg>