<?xml version="1.0" encoding="utf-8"?>
<!-- Generator: Adobe Illustrator 26.0.2, SVG Export Plug-In . SVG Version: 6.00 Build 0)  -->
<svg version="1.2" baseProfile="tiny" xmlns="http://www.w3.org/2000/svg" xmlns:xlink="http://www.w3.org/1999/xlink" x="0px"
	 y="0px" viewBox="0 0 16 16" overflow="visible" xml:space="preserve">
<g id="Layer_1">
	<g>
		<rect x="3.963" y="3.963" fill="#7F7F7F" width="8.073" height="8.073"/>
		<path fill="#7F7F7F" d="M1.25,14.75h13.5V1.25H1.25V14.75z M3.5,3.916C3.5,3.686,3.686,3.5,3.916,3.5h8.167
			c0.23,0,0.416,0.186,0.416,0.416v8.167c0,0.23-0.186,0.416-0.416,0.416H3.916c-0.23,0-0.416-0.186-0.416-0.416V3.916z"/>
		<path fill="#444444" d="M0.75,0.75v14.5h14.5V0.75H0.75z M14.75,14.75H1.25V1.25h13.5V14.75z"/>
		<path fill="#444444" d="M12.084,3.3H3.916C3.576,3.3,3.3,3.576,3.3,3.916v8.168c0,0.34,0.276,0.616,0.616,0.616h8.167
			c0.34,0,0.617-0.276,0.617-0.616V3.916C12.7,3.576,12.423,3.3,12.084,3.3z M11.837,4.163v7.673H4.164V4.163H11.837z"/>
	</g>
</g>
<g id="METRICS_AND_KEYLINES">
</g>
<g id="Isolation_Mode">
</g>
<g id="filled">
</g>
</svg>
