<?xml version="1.0" encoding="UTF-8"?>
<svg id="icons" xmlns="http://www.w3.org/2000/svg" viewBox="0 0 16 16">
  <defs>
    <style>
      .cls-1 {
        fill: #fff;
      }

      .cls-1, .cls-2 {
        fill-rule: evenodd;
      }
    </style>
  </defs>
  <path class="cls-1" d="m16.4,15.05L8.46.4c-.26-.51-.68-.51-.94,0L-.42,15.05c-.26.51-.05.93.47.93h15.88c.52,0,.73-.42.47-.93Zm-8.34-3.5c-.32,0-.58-.26-.58-.58v-6.1c0-.32.26-.58.58-.58s.58.26.58.58v6.1c0,.32-.26.58-.58.58Zm-.37,1.42c.4-.19.89,0,1.07.4.19.4.01.88-.39,1.07-.4.19-.89.01-1.07-.39-.19-.41-.01-.89.39-1.07Z"/>
  <path class="cls-2" d="m15.26,14.35L8.4,1.69c-.22-.44-.59-.44-.81,0L.72,14.35c-.22.44-.04.8.4.8h13.72c.45,0,.63-.36.41-.8Zm-7.21-3.02c-.28,0-.5-.22-.5-.5v-5.27c0-.28.22-.5.5-.5s.5.22.5.5v5.27c0,.28-.22.5-.5.5Zm-.32,1.22c.35-.16.77,0,.93.34.16.35.01.76-.34.93-.35.16-.77.01-.93-.34-.16-.35,0-.77.34-.93Z"/>
</svg>